Coordinates
version=1
nRows=11
nColumns=40
inDegrees=yes

Units are S.I. units (second, meters, Newtons, ...)
Angles are in degrees.

endheader
time	pelvis_tilt	pelvis_list	pelvis_rotation	pelvis_tx	pelvis_ty	pelvis_tz	hip_flexion_r	hip_adduction_r	hip_rotation_r	knee_angle_r	knee_angle_r_beta	ankle_angle_r	subtalar_angle_r	mtp_angle_r	hip_flexion_l	hip_adduction_l	hip_rotation_l	knee_angle_l	knee_angle_l_beta	ankle_angle_l	subtalar_angle_l	mtp_angle_l	lumbar_extension	lumbar_bending	lumbar_rotation	arm_flex_r	arm_add_r	arm_rot_r	elbow_flex_r	pro_sup_r	wrist_flex_r	wrist_dev_r	arm_flex_l	arm_add_l	arm_rot_l	elbow_flex_l	pro_sup_l	wrist_flex_l	wrist_dev_l
      0.52000000	     -1.71096320	     -2.72381903	     -0.73382923	     -0.59770535	      0.88928734	     -1.02231366	      5.75341334	      5.06540701	    -16.07939402	    -19.13938393	     -0.33404527	     11.72787153	      1.65568752	     -0.09361689	     29.36572925	      8.75501096	      8.89387272	    -57.38822130	     -1.00161341	      8.63927409	     18.99054578	     19.21305862	     -5.41434163	      1.61468171	      0.98036812	      1.89666222	    -10.86755551	    -13.31141576	     39.67920650	     89.95437384	      0.00000000	      0.00000000	     -6.19292112	      7.90730178	     17.78667006	     27.32430109	     89.95437384	      0.00000000	      0.00000000
      0.53000000	     -1.88605366	     -2.82107894	     -0.92439986	     -0.58946898	      0.88859507	     -1.02141405	      5.25617301	      5.24661948	    -16.12357639	    -18.95131438	     -0.33076283	     12.00694091	      1.72655086	     -0.18216049	     30.16962121	      8.73758406	      9.28886319	    -55.39308143	     -0.96679165	      8.89821405	     19.00007696	     19.20604272	     -5.21176506	      1.77065663	      1.15730713	      2.23037878	    -10.95125190	    -13.27802726	     40.50528149	     89.95437384	      0.00000000	      0.00000000	     -6.71346760	      7.80144562	     17.60268232	     26.78160531	     89.95437384	      0.00000000	      0.00000000
      0.54000000	     -1.49260175	     -2.41288661	     -1.35515219	     -0.58086264	      0.88896410	     -1.02077025	      3.85553849	      4.92209698	    -15.37690493	    -18.25512747	     -0.31861208	     12.64125835	      2.38756691	     -0.48794363	     29.90448587	      8.21398919	     10.15749137	    -52.80952137	     -0.92170002	      9.21029339	     18.96064883	     19.84254881	     -5.68238610	      1.38630502	      1.89887368	      2.17110638	    -11.14053496	    -13.29828860	     41.91897383	     89.95437384	      0.00000000	      0.00000000	     -6.55864135	      7.74394211	     17.18370856	     25.41419003	     89.95437384	      0.00000000	      0.00000000
      0.55000000	     -1.22784708	     -2.20738321	     -1.64851221	     -0.57223946	      0.88887385	     -1.02012697	      2.88956994	      4.53787192	    -16.06325581	    -18.23603114	     -0.31827879	     12.81935790	      3.76031635	     -2.46961516	     29.87357727	      7.91813040	     10.98394861	    -50.30240213	     -0.87794254	      9.58285630	     18.90401983	     22.65586652	     -5.97876534	      1.18752593	      2.25049015	      2.53583585	    -11.17324765	    -13.36607164	     42.66178434	     89.95437384	      0.00000000	      0.00000000	     -6.97823499	      7.70536818	     16.79409969	     24.95031433	     89.95437384	      0.00000000	      0.00000000
      0.56000000	     -1.52274337	     -2.42797011	     -1.77007698	     -0.56401757	      0.88769115	     -1.01946264	      2.57555905	      4.82466790	    -16.15082513	    -18.15759423	     -0.31690980	     13.06400744	      3.70500711	     -2.53360571	     30.70155087	      8.05708564	     11.42278296	    -48.02740633	     -0.83823637	      9.51631399	     18.79829989	     22.52148847	     -5.65581421	      1.47784068	      2.34222071	      2.85255029	    -11.28850850	    -13.14666292	     43.41856349	     89.95437384	      0.00000000	      0.00000000	     -7.48410656	      7.58396357	     16.73965604	     24.51894320	     89.95437384	      0.00000000	      0.00000000
      0.57000000	     -1.39073138	     -2.14017300	     -2.09708508	     -0.55553260	      0.88740634	     -1.01896626	      1.64935343	      4.57142330	    -15.58693620	    -17.85765450	     -0.31167487	     13.44848746	      3.78924407	     -2.81960991	     30.66337625	      7.64183196	     12.24951741	    -45.17995585	     -0.78853899	      8.90539302	     18.68470646	     22.32294386	     -5.82049584	      1.19074950	      2.78985637	      3.02398503	    -11.48233171	    -12.84375857	     44.33259368	     89.95437384	      0.00000000	      0.00000000	     -7.49226534	      7.49643966	     16.90022288	     23.49556215	     89.95437384	      0.00000000	      0.00000000
      0.58000000	     -1.58069101	     -2.03461846	     -2.43723895	     -0.54762762	      0.88642393	     -1.01829743	      1.35133212	      4.45440346	    -15.30425074	    -18.00528396	     -0.31425149	     13.82356329	      3.88772260	     -3.06201746	     31.09423532	      7.45588733	     12.88438523	    -42.50456808	     -0.74184466	      8.49272029	     18.43159062	     21.83219378	     -5.69757758	      1.08484764	      3.16738421	      3.32150297	    -11.61940330	    -12.54590467	     45.09341030	     89.95437384	      0.00000000	      0.00000000	     -7.68655496	      7.40189646	     17.02810354	     22.85623788	     89.95437384	      0.00000000	      0.00000000
      0.59000000	     -1.91182634	     -2.22788143	     -2.62334001	     -0.53944976	      0.88502899	     -1.01786340	      1.11815895	      4.66351009	    -15.31660258	    -18.02694328	     -0.31462951	     14.01287019	      3.91216398	     -3.16467331	     31.74932659	      7.52355408	     13.27708161	    -40.00669264	     -0.69824851	      8.34498087	     17.88556915	     21.49382798	     -5.37191483	      1.34008819	      3.39378946	      3.54670321	    -11.80424215	    -12.26174990	     45.82643125	     89.95437384	      0.00000000	      0.00000000	     -8.05311076	      7.28991471	     16.99511024	     22.48985981	     89.95437384	      0.00000000	      0.00000000
      0.60000000	     -1.82839141	     -1.89356667	     -3.00006071	     -0.53107623	      0.88448425	     -1.01750850	      0.50673625	      4.20344091	    -15.04835538	    -18.24292301	     -0.31839907	     14.44120118	      4.28794849	     -3.61005584	     31.63534519	      7.12928436	     14.21734161	    -37.13559200	     -0.64813835	      7.76435076	     17.31687931	     20.38103803	     -5.51368182	      0.98360406	      3.77731860	      3.83914205	    -11.91635523	    -11.94252793	     46.48399908	     89.95437384	      0.00000000	      0.00000000	     -8.04970142	      7.19376144	     17.29587897	     21.62734824	     89.95437384	      0.00000000	      0.00000000
      0.61000000	     -2.24794008	     -2.08538639	     -3.14297203	     -0.52300899	      0.88294259	     -1.01720053	      0.34103791	      4.41661618	    -15.09227433	    -18.15614998	     -0.31688460	     14.60625603	      4.41317649	     -3.72642824	     32.33972161	      7.17973944	     14.48498383	    -34.76502855	     -0.60676421	      7.62654923	     16.35276086	     19.89563633	     -5.10602823	      1.21819932	      3.95492275	      4.10278563	    -12.11063591	    -11.53084546	     47.00225925	     89.95437384	      0.00000000	      0.00000000	     -8.31897612	      7.11859314	     17.28009572	     21.29272667	     89.95437384	      0.00000000	      0.00000000
      0.62000000	     -2.51162964	     -2.33073590	     -3.14028132	     -0.51447746	      0.88149015	     -1.01705729	      0.03087167	      4.65338419	    -15.17746507	    -18.26484898	     -0.31878175	     14.85041444	      4.41446132	     -3.80095287	     32.98288270	      7.35451106	     15.10200148	    -32.83087389	     -0.57300685	      7.73067956	     15.78560548	     19.60435906	     -4.80459226	      1.52395985	      3.91805741	      4.36969765	    -12.19503803	    -11.30128640	     47.46343043	     89.95437384	      0.00000000	      0.00000000	     -8.60455188	      7.06685504	     17.26579655	     20.91116937	     89.95437384	      0.00000000	      0.00000000
